<svg width="842" height="698" viewBox="0 0 842 698" fill="#0077b8ff" xmlns="http://www.w3.org/2000/svg">
<path fill-rule="evenodd" clip-rule="evenodd" d="M 494.3 77 V 29.3 C 494.3 26.6 493.2 24.1 491.4 22.4 C 489.6 20.6 487.2 19.5 484.5 19.5 H 358.3 C 355.6 19.5 353.1 20.6 351.3 22.4 C 349.6 24.1 348.4 26.6 348.4 29.3 V 77 H 328.9 V 29.3 C 328.9 21.2 332.2 13.9 337.5 8.6 C 342.8 3.3 350.2 0 358.2 0 H 484.4 C 492.5 0 499.8 3.3 505.1 8.6 C 510.4 13.9 513.7 21.2 513.7 29.3 V 77 H 494.2 H 494.3 Z" fill="inherit"/>
<path fill-rule="evenodd" clip-rule="evenodd" d="M 187.1 66.3 H 343.3 V 127.4 C 338.2 119.9 329.5 114.9 319.7 114.9 C 304.1 114.9 291.4 127.5 291.4 143.1 C 291.4 158.7 304.1 171.4 319.7 171.4 C 329.5 171.4 338.2 166.4 343.3 158.8 V 222.2 H 279.8 C 287.3 227.3 292.3 235.9 292.3 245.7 C 292.3 261.3 279.7 274 264 274 C 248.4 274 235.7 261.3 235.7 245.7 C 235.7 235.9 240.7 227.3 248.3 222.2 H 187 V 66.3 H 187.1 Z" fill="#ff7a33"/>
<path fill-rule="evenodd" clip-rule="evenodd" d="M 343.3 222.2 H 405.7 C 398.1 217.1 393.1 208.5 393.1 198.7 C 393.1 183.1 405.8 170.4 421.4 170.4 C 437 170.4 449.7 183.1 449.7 198.7 C 449.7 208.5 444.7 217.1 437.1 222.2 H 499.5 V 378.1 H 343.3 V 315.8 C 348.4 323.4 357 328.4 366.9 328.4 C 382.5 328.4 395.2 315.8 395.2 300.2 C 395.2 284.6 382.5 271.9 366.9 271.9 C 357 271.9 348.4 276.9 343.3 284.5 V 222.2 Z" fill="#0077b6"/>
<path fill-rule="evenodd" clip-rule="evenodd" d="M 655.8 378.1 V 222.2 H 594.5 C 602.1 227.3 607.1 235.9 607.1 245.7 C 607.1 261.3 594.4 274 578.8 274 C 563.1 274 550.4 261.3 550.4 245.7 C 550.4 235.9 555.4 227.3 563 222.2 H 499.5 V 284.5 C 494.4 276.9 485.7 271.9 475.9 271.9 C 460.3 271.9 447.6 284.5 447.6 300.1 C 447.6 315.7 460.3 328.4 475.9 328.4 C 485.7 328.4 494.4 323.4 499.5 315.8 V 378.1 H 655.7 L 655.8 378.1 Z" fill="#3f61a9"/>
<path fill-rule="evenodd" clip-rule="evenodd" d="M 499.5 66.3 H 437.1 C 444.7 71.3 449.7 80 449.7 89.8 C 449.7 105.4 437 118 421.4 118 C 405.8 118 393.1 105.4 393.1 89.8 C 393.1 80 398.1 71.3 405.7 66.3 H 343.3 V 127.4 C 338.2 119.9 329.5 114.9 319.7 114.9 C 304.1 114.9 291.4 127.5 291.4 143.1 C 291.4 158.7 304.1 171.4 319.7 171.4 C 329.5 171.4 338.2 166.4 343.3 158.8 V 222.2 H 405.7 C 398.1 217.1 393.1 208.5 393.1 198.7 C 393.1 183.1 405.8 170.4 421.4 170.4 C 437 170.4 449.7 183.1 449.7 198.7 C 449.7 208.5 444.7 217.1 437.1 222.2 H 499.5 V 158.8 C 504.6 166.4 513.3 171.4 523.1 171.4 C 538.7 171.4 551.4 158.7 551.4 143.1 C 551.4 127.5 538.7 114.9 523.1 114.9 C 513.3 114.9 504.6 119.9 499.5 127.4 V 66.3 Z" fill="#ffcb05"/>
<path fill-rule="evenodd" clip-rule="evenodd" d="M 655.8 66.3 H 499.5 V 127.4 C 504.6 119.9 513.3 114.9 523.1 114.9 C 538.7 114.9 551.4 127.5 551.4 143.1 C 551.4 158.7 538.7 171.4 523.1 171.4 C 513.3 171.4 504.6 166.4 499.5 158.8 V 222.2 H 563.1 C 555.5 227.3 550.5 235.9 550.5 245.7 C 550.5 261.3 563.2 274 578.8 274 C 594.4 274 607.1 261.3 607.1 245.7 C 607.1 235.9 602.1 227.3 594.5 222.2 H 655.8 V 66.3 H 655.8 Z" fill="#ff7a33"/>
<path d="M 137.2 624.9 H 122.6 C 122.3 622.4 121.5 620.3 120.3 618.5 C 119.2 616.6 117.8 615 116.2 613.7 C 114.4 612.4 112.6 611.4 110.4 610.7 C 108.3 610.1 106 609.6 103.6 609.6 C 99.3 609.6 95.4 610.7 92 613 C 88.6 615.1 86.1 618.4 84.1 622.6 C 82.2 626.8 81.2 632 81.2 638 C 81.2 644.2 82.2 649.4 84.1 653.6 C 86.1 657.9 88.6 661.1 92 663.2 C 95.4 665.3 99.3 666.5 103.6 666.5 C 106 666.5 108.1 666.1 110.2 665.5 C 112.5 664.9 114.2 663.9 116 662.6 C 117.6 661.4 119 659.8 120.2 658 C 121.3 656.1 122.1 654 122.6 651.7 L 137.2 651.7 C 136.7 655.6 135.5 659.2 133.7 662.6 C 131.9 666 129.5 668.9 126.6 671.5 C 123.7 674 120.3 676.1 116.3 677.5 C 112.5 678.8 108.1 679.6 103.3 679.6 C 96.4 679.6 90.1 678 84.5 674.6 C 79 671.4 74.6 666.6 71.4 660.5 C 68.2 654.1 66.6 646.8 66.6 638 C 66.6 629.4 68.2 622 71.4 615.8 C 74.6 609.4 79 604.7 84.6 601.5 C 90.1 598.2 96.4 596.6 103.3 596.6 C 107.8 596.6 112 597.1 115.8 598.4 C 119.5 599.7 123.1 601.5 126 603.9 C 129 606.4 131.4 609.4 133.4 612.9 C 135.3 616.4 136.6 620.5 137.2 624.9 Z M 214.9 678.5 H 199.3 L 227.6 597.6 H 245.5 L 273.7 678.5 H 258.2 L 236.8 614.1 H 236.2 L 214.9 678.5 Z M 215.4 646.8 H 257.6 V 658.5 H 215.4 V 646.8 Z M 405.1 597.6 V 678.5 H 392.2 L 354.4 623.4 H 353.8 V 678.5 H 339.3 V 597.6 H 352.3 L 390 652.8 H 390.6 V 597.6 H 405.1 Z M 486.7 597.6 L 507.4 661.3 H 508.4 L 529.1 597.6 H 545.1 L 516.9 678.5 H 498.9 L 470.7 597.6 H 486.7 Z M 611.5 678.5 H 596.1 L 624.2 597.6 H 642.2 L 670.4 678.5 H 654.9 L 633.5 614.1 H 632.9 L 611.5 678.5 Z M 612.1 646.8 H 654.3 V 658.5 H 612.1 V 646.8 Z M 778.2 619.8 C 777.9 616.4 776.2 613.7 773.7 611.9 C 770.9 609.9 767.4 609 763.2 609 C 760.2 609 757.6 609.4 755.3 610.3 C 753.2 611.2 751.5 612.5 750.3 614 C 749.2 615.6 748.7 617.4 748.6 619.5 C 748.6 621.1 749.1 622.6 749.7 623.9 C 750.5 625 751.6 626.2 752.9 627 C 754.2 627.8 755.8 628.6 757.4 629.1 C 759 629.8 760.6 630.2 762.2 630.6 L 769.8 632.5 C 772.7 633.2 775.6 634.1 778.5 635.4 C 781.2 636.6 783.8 638 786.1 640 C 788.3 641.8 790.1 644 791.4 646.6 C 792.7 649.3 793.3 652.3 793.3 655.8 C 793.3 660.5 792 664.7 789.8 668.3 C 787.3 671.8 783.8 674.8 779.3 676.7 C 774.8 678.7 769.3 679.8 762.9 679.8 C 756.6 679.8 751.3 678.8 746.6 676.9 C 742.1 674.9 738.6 672 736 668.3 C 733.5 664.5 732 660 731.8 654.6 H 746.2 C 746.3 657.4 747.1 659.8 748.7 661.6 C 750.2 663.5 752.1 664.9 754.5 665.8 C 757.1 666.8 759.8 667.1 762.7 667.1 C 766 667.1 768.7 666.8 771.1 665.8 C 773.5 664.9 775.3 663.5 776.7 661.8 C 778 660 778.8 658 778.8 655.8 C 778.8 653.6 778.2 651.9 776.9 650.4 C 775.8 649.1 774 648 771.9 647 C 769.8 646 767.2 645.2 764.3 644.5 L 755.3 642.1 C 748.7 640.3 743.4 637.7 739.6 634.3 C 735.9 630.9 733.9 626.2 733.9 620.3 C 733.9 615.6 735.2 611.4 737.8 607.8 C 740.4 604.2 743.9 601.5 748.3 599.5 C 752.8 597.6 757.7 596.6 763.4 596.6 C 769 596.6 774 597.6 778.3 599.5 C 782.5 601.5 785.9 604.2 788.5 607.8 C 790.9 611.2 792.2 615.3 792.2 619.8 H 778.2 Z" fill="#0077b6"/>
<path d="M 4.3 522.9 C 4.3 514.4 6.2 506.9 10 500.2 C 13.8 493.5 19.1 488.3 25.6 484.6 C 32.3 480.8 39.7 478.9 47.9 478.9 C 57.5 478.9 65.9 481.4 73.2 486.3 C 80.4 491.2 85.4 498.1 88.3 506.8 H 68.5 C 66.5 502.6 63.7 499.6 60.1 497.5 C 56.6 495.5 52.5 494.4 47.8 494.4 C 42.8 494.4 38.3 495.6 34.4 498 C 30.5 500.3 27.5 503.6 25.3 507.9 C 23.1 512.1 22 517.1 22 522.9 C 22 528.6 23.1 533.6 25.3 537.9 C 27.5 542.2 30.5 545.5 34.4 547.9 C 38.3 550.2 42.8 551.3 47.8 551.3 C 52.5 551.3 56.6 550.3 60.1 548.3 C 63.7 546.1 66.5 543 68.5 538.9 H 88.3 C 85.4 547.7 80.4 554.5 73.2 559.5 C 66 564.3 57.6 566.7 47.9 566.7 C 39.7 566.7 32.3 564.9 25.6 561.2 C 19.1 557.4 13.8 552.2 10 545.6 C 6.2 538.9 4.3 531.3 4.3 522.9 Z M 229.7 549.6 H 195.4 L 189.8 566 H 171.6 L 202.6 479.9 H 222.6 L 253.6 566 H 235.3 L 229.7 549.6 Z M 225 535.8 L 212.5 499.9 L 200.1 535.8 H 225 Z M 383.4 566 L 364.4 532.5 H 356.3 V 566 H 339 V 480 H 371.3 C 377.9 480 383.6 481.2 388.3 483.6 C 393 485.9 396.5 489.1 398.8 493.1 C 401.1 497 402.3 501.5 402.3 506.4 C 402.3 512.1 400.7 517.2 397.4 521.8 C 394.1 526.3 389.2 529.4 382.7 531.1 L 403.3 566 H 383.4 Z M 356.3 519.6 H 370.7 C 375.4 519.6 378.8 518.5 381.1 516.2 C 383.4 513.9 384.6 510.8 384.6 506.8 C 384.6 502.8 383.4 499.8 381.1 497.6 C 378.8 495.4 375.4 494.3 370.7 494.3 H 356.3 V 519.6 Z M 815.1 566 L 796.1 532.5 H 788 V 566 H 770.7 V 480 H 803 C 809.7 480 815.3 481.2 820 483.6 C 824.7 485.9 828.2 489.1 830.5 493.1 C 832.9 497 834 501.5 834 506.4 C 834 512.1 832.4 517.2 829.1 521.8 C 825.8 526.3 821 529.4 814.5 531.1 L 835 566 H 815.1 Z M 788 519.6 H 802.4 C 807.1 519.6 810.6 518.5 812.9 516.2 C 815.2 513.9 816.3 510.8 816.3 506.8 C 816.3 502.8 815.2 499.8 812.9 497.6 C 810.6 495.4 807.1 494.3 802.4 494.3 H 788 V 519.6 Z" fill="inherit"/>
<path d="M 509.1 493.9 V 515.5 H 538 V 529.2 H 509.1 V 552 H 541.7 V 566 H 491.8 V 479.9 H 541.7 V 493.9 H 509.1 Z M 648.5 493.9 V 515.5 H 677.5 V 529.2 H 648.5 V 552 H 681.2 V 566 H 631.3 V 479.9 H 681.2 V 493.9 H 648.5 Z" fill="#0077b6"/>
    <path clip-rule="evenodd" fill="#ffcb05" fill-rule="evenodd" d="M 342.5 221.3 H 280.1 C 287.7 226.3 292.7 235 292.7 244.8 C 292.7 260.4 280 273 264.4 273 C 248.8 273 236.1 260.4 236.1 244.8 C 236.1 235 241.1 226.3 248.7 221.3 H 186.3 V 282.4 C 181.2 274.9 172.5 269.9 162.7 269.9 C 147.1 269.9 134.4 282.5 134.4 298.1 C 134.4 313.7 147.1 326.4 162.7 326.4 C 172.5 326.4 181.2 321.4 186.3 313.8 V 377.2 H 248.7 C 241.1 372.1 236.1 363.5 236.1 353.7 C 236.1 338.1 248.8 325.4 264.4 325.4 C 280 325.4 292.7 338.1 292.7 353.7 C 292.7 363.5 287.7 372.1 280.1 377.2 H 342.5 V 313.8 C 347.6 321.4 356.3 326.4 366.1 326.4 C 381.7 326.4 394.4 313.7 394.4 298.1 C 394.4 282.5 381.7 269.9 366.1 269.9 C 356.3 269.9 347.6 274.9 342.5 282.4 V 221.3 Z"/>
</svg>
