<?xml version="1.0" encoding="UTF-8" standalone="no"?>
<!DOCTYPE svg PUBLIC "-//W3C//DTD SVG 1.1//EN" "http://www.w3.org/Graphics/SVG/1.1/DTD/svg11.dtd">
<!-- Created with Vectornator (http://vectornator.io/) -->
<svg height="100%" stroke-miterlimit="10" style="fill-rule:nonzero;clip-rule:evenodd;stroke-linecap:round;stroke-linejoin:round;" version="1.1" viewBox="0 0 1220.76 885.449" width="100%" xml:space="preserve" xmlns="http://www.w3.org/2000/svg" xmlns:vectornator="http://vectornator.io" xmlns:xlink="http://www.w3.org/1999/xlink">
<defs/>
<g id="Layer-1" vectornator:layerName="Layer 1">
<path d="M1168.3 390.812C1135.23 595.695 1048.52 694.103 908.166 686.037C832.343 681.197 768.216 656.192 715.786 611.021L707.316 617.07L707.316 666.678C706.51 714.269 710.543 749.357 719.416 771.942C720.222 774.362 724.659 782.63 732.725 796.746C740.791 810.862 744.824 819.533 744.824 822.759C744.824 832.439 741.195 841.513 733.935 849.983C726.675 858.453 717.802 862.687 707.316 862.687C683.118 862.687 666.178 854.621 656.499 838.489C650.046 826.389 646.013 807.03 644.4 780.412C641.98 739.274 640.77 697.733 640.77 655.788C640.77 631.59 642.585 595.291 646.215 546.894C649.844 498.497 651.458 461.594 651.054 436.185C650.651 410.776 652.466 373.268 656.499 323.661C660.532 274.053 662.549 237.15 662.549 212.952L662.549 98.0077C662.549 92.3613 661.137 83.4885 658.314 71.3891C655.491 59.2898 654.079 50.4169 654.079 44.7705C654.079 29.4447 664.565 21.7817 685.537 21.7817C699.25 21.7817 710.744 27.8314 720.021 39.9308C729.297 52.0301 733.935 64.9361 733.935 78.6487C733.935 89.1348 731.717 104.057 727.28 123.416C722.844 142.775 720.626 157.698 720.626 168.184L721.836 199.642C740.388 167.377 758.94 135.112 777.493 102.847C821.05 42.3507 878.724 12.1022 950.513 12.1022C1027.95 12.1022 1086.43 43.9639 1125.95 107.687C1158.22 160.118 1174.35 226.664 1174.35 307.327C1174.35 335.559 1172.34 363.387 1168.3 390.812ZM1115.06 321.846C1115.06 258.929 1104.18 203.675 1082.4 156.085C1054.16 93.9746 1012.62 62.9196 957.773 62.9196C886.79 62.9196 826.697 110.107 777.493 204.482C735.548 285.145 714.576 364.597 714.576 442.84L714.576 506.966C722.642 502.933 728.692 500.916 732.725 500.916C738.371 500.916 743.413 504.95 747.849 513.016C752.286 521.082 756.117 526.325 759.344 528.745C758.537 531.165 757.327 531.971 755.714 531.165C754.101 530.358 753.294 531.165 753.294 533.585C753.294 537.618 756.52 544.877 762.973 555.364C794.432 603.761 842.829 627.96 908.166 627.96C969.469 627.96 1015.45 607.794 1046.1 567.463C1052.83 558.872 1059.16 548.81 1065.1 537.279C1079.77 508.749 1091.99 471.22 1101.76 424.69C1110.63 378.713 1115.06 344.431 1115.06 321.846Z" fill="#006992" fill-rule="nonzero" opacity="1" stroke="none"/>
<path d="M510.158 400.344C510.158 465.68 502.495 537.47 487.169 615.712C468.617 713.314 444.015 778.651 413.363 811.722C373.838 853.667 327.861 874.639 275.43 874.639C212.514 874.639 164.116 860.12 130.238 831.081C88.2935 795.59 62.0782 743.966 51.5921 676.209C46.7524 647.977 44.3325 587.481 44.3325 494.719C44.3325 455.194 46.7524 396.109 51.5921 317.463C56.4319 238.817 58.8517 180.135 58.8517 141.417C58.8517 134.158 56.4319 123.873 51.5921 110.564C46.7524 97.2548 44.3325 87.3737 44.3325 80.9207C44.3325 72.8544 50.9872 64.3849 64.2965 55.512C77.6058 46.6391 88.6968 42.2027 97.5697 42.2027C127.415 42.2027 141.127 41.7994 138.708 40.9928C149.194 43.4126 153.63 52.6888 152.017 68.8213C146.37 91.4068 140.321 120.849 133.868 157.147C118.542 306.372 110.879 398.327 110.879 433.012L110.879 590.304C110.879 645.961 121.365 694.762 142.337 736.706C168.956 789.943 207.271 816.562 257.281 816.562C341.977 816.562 399.247 735.496 429.092 573.365C443.611 492.702 450.871 377.758 450.871 228.533C450.871 228.533 451.274 211.594 452.081 177.716C452.888 156.743 452.484 138.998 450.871 124.478C449.258 105.926 445.225 89.9952 438.772 76.6859C432.319 63.3766 429.092 55.9153 429.092 54.3021C429.092 46.2358 432.117 37.1613 438.167 27.0785C444.216 16.9957 451.274 11.9543 459.341 11.9543C468.213 11.9543 478.901 15.7858 491.404 23.4487C503.907 31.1116 510.158 38.9762 510.158 47.0425L510.158 400.344Z" fill="#eca400" fill-rule="nonzero" opacity="1" stroke="none"/>
</g>
</svg>
